<?xml version="1.0" encoding="UTF-8"?>
<!--
  THE ASYLUM — Ornate Icon Set
  Victorian-inspired line icons for card headers
  Use: <svg class="icon"><use href="assets/svg/icons.svg#icon-name"/></svg>
-->
<svg xmlns="http://www.w3.org/2000/svg" style="display: none;">
  
  <!-- ABOUT: Ornate Cameo/Portrait Frame -->
  <symbol id="icon-about" viewBox="0 0 64 64">
    <title>About</title>
    <!-- Oval frame -->
    <ellipse cx="32" cy="32" rx="26" ry="30" fill="none" stroke="currentColor" stroke-width="2"/>
    <ellipse cx="32" cy="32" rx="22" ry="26" fill="none" stroke="currentColor" stroke-width="1" opacity="0.5"/>
    <!-- Decorative top -->
    <path d="M32 2 L36 8 L32 6 L28 8 Z" fill="currentColor"/>
    <path d="M20 6 Q32 0 44 6" fill="none" stroke="currentColor" stroke-width="1.5"/>
    <!-- Decorative bottom -->
    <path d="M32 62 L36 56 L32 58 L28 56 Z" fill="currentColor"/>
    <path d="M20 58 Q32 64 44 58" fill="none" stroke="currentColor" stroke-width="1.5"/>
    <!-- Silhouette suggestion -->
    <circle cx="32" cy="24" r="8" fill="none" stroke="currentColor" stroke-width="1.5"/>
    <path d="M22 44 Q24 34 32 32 Q40 34 42 44" fill="none" stroke="currentColor" stroke-width="1.5"/>
  </symbol>
  
  <!-- LIBRARY: Ornate Open Book -->
  <symbol id="icon-library" viewBox="0 0 64 64">
    <title>Library</title>
    <!-- Book spine -->
    <path d="M32 12 L32 56" stroke="currentColor" stroke-width="2"/>
    <!-- Left page -->
    <path d="M32 12 Q24 10 8 14 L8 52 Q24 48 32 52" fill="none" stroke="currentColor" stroke-width="2"/>
    <!-- Right page -->
    <path d="M32 12 Q40 10 56 14 L56 52 Q40 48 32 52" fill="none" stroke="currentColor" stroke-width="2"/>
    <!-- Page lines left -->
    <path d="M14 22 L28 20" stroke="currentColor" stroke-width="1" opacity="0.5"/>
    <path d="M14 30 L28 28" stroke="currentColor" stroke-width="1" opacity="0.5"/>
    <path d="M14 38 L28 36" stroke="currentColor" stroke-width="1" opacity="0.5"/>
    <!-- Page lines right -->
    <path d="M36 20 L50 22" stroke="currentColor" stroke-width="1" opacity="0.5"/>
    <path d="M36 28 L50 30" stroke="currentColor" stroke-width="1" opacity="0.5"/>
    <path d="M36 36 L50 38" stroke="currentColor" stroke-width="1" opacity="0.5"/>
    <!-- Ornate corners -->
    <path d="M6 12 Q8 8 12 10" fill="none" stroke="currentColor" stroke-width="1.5"/>
    <path d="M52 10 Q56 8 58 12" fill="none" stroke="currentColor" stroke-width="1.5"/>
    <path d="M6 54 Q8 58 12 56" fill="none" stroke="currentColor" stroke-width="1.5"/>
    <path d="M52 56 Q56 58 58 54" fill="none" stroke="currentColor" stroke-width="1.5"/>
    <!-- Top flourish -->
    <path d="M28 6 L32 2 L36 6" fill="none" stroke="currentColor" stroke-width="1.5"/>
    <circle cx="32" cy="2" r="1.5" fill="currentColor"/>
  </symbol>
  
  <!-- ADVOCACY: Raised Torch -->
  <symbol id="icon-advocacy" viewBox="0 0 64 64">
    <title>Advocacy</title>
    <!-- Torch handle -->
    <rect x="28" y="32" width="8" height="24" rx="2" fill="none" stroke="currentColor" stroke-width="2"/>
    <!-- Handle details -->
    <path d="M28 38 L36 38" stroke="currentColor" stroke-width="1"/>
    <path d="M28 44 L36 44" stroke="currentColor" stroke-width="1"/>
    <path d="M28 50 L36 50" stroke="currentColor" stroke-width="1"/>
    <!-- Torch cup -->
    <path d="M24 32 L26 28 L38 28 L40 32 Z" fill="none" stroke="currentColor" stroke-width="2"/>
    <!-- Flame -->
    <path d="M32 26 Q38 20 36 12 Q34 18 32 16 Q30 18 28 12 Q26 20 32 26" fill="none" stroke="currentColor" stroke-width="2"/>
    <path d="M32 22 Q34 18 33 14" fill="none" stroke="currentColor" stroke-width="1" opacity="0.6"/>
    <!-- Flame glow rays -->
    <path d="M32 8 L32 4" stroke="currentColor" stroke-width="1.5"/>
    <path d="M24 10 L20 6" stroke="currentColor" stroke-width="1"/>
    <path d="M40 10 L44 6" stroke="currentColor" stroke-width="1"/>
    <!-- Base ornament -->
    <path d="M26 56 L32 60 L38 56" fill="none" stroke="currentColor" stroke-width="1.5"/>
    <circle cx="32" cy="60" r="2" fill="currentColor"/>
  </symbol>
  
  <!-- PROJECTS: Anvil & Hammer (Workshop) -->
  <symbol id="icon-projects" viewBox="0 0 64 64">
    <title>Projects</title>
    <!-- Anvil base -->
    <path d="M12 48 L16 40 L48 40 L52 48 L56 48 L56 54 L8 54 L8 48 Z" fill="none" stroke="currentColor" stroke-width="2"/>
    <!-- Anvil horn -->
    <path d="M16 40 L4 36 L4 40 L16 44" fill="none" stroke="currentColor" stroke-width="2"/>
    <!-- Anvil face -->
    <rect x="16" y="36" width="32" height="4" fill="none" stroke="currentColor" stroke-width="1.5"/>
    <!-- Hammer handle -->
    <path d="M44 8 L28 28" stroke="currentColor" stroke-width="2"/>
    <!-- Hammer head -->
    <rect x="24" y="24" width="12" height="8" rx="1" fill="none" stroke="currentColor" stroke-width="2" transform="rotate(-45 30 28)"/>
    <!-- Sparks -->
    <circle cx="20" cy="32" r="1" fill="currentColor"/>
    <circle cx="24" cy="28" r="1" fill="currentColor"/>
    <circle cx="18" cy="28" r="0.75" fill="currentColor"/>
    <!-- Decorative base -->
    <path d="M8 58 Q32 62 56 58" fill="none" stroke="currentColor" stroke-width="1"/>
  </symbol>
  
  <!-- GUESTBOOK: Quill & Scroll -->
  <symbol id="icon-guestbook" viewBox="0 0 64 64">
    <title>Guestbook</title>
    <!-- Scroll -->
    <path d="M12 16 L12 52 Q12 56 16 56 L44 56 Q48 56 48 52 L48 20" fill="none" stroke="currentColor" stroke-width="2"/>
    <!-- Scroll top curl -->
    <path d="M12 16 Q12 12 16 12 L52 12 Q56 12 56 16 Q56 20 52 20 L48 20" fill="none" stroke="currentColor" stroke-width="2"/>
    <ellipse cx="54" cy="16" rx="2" ry="4" fill="none" stroke="currentColor" stroke-width="1"/>
    <!-- Scroll lines -->
    <path d="M18 28 L42 28" stroke="currentColor" stroke-width="1" opacity="0.5"/>
    <path d="M18 36 L42 36" stroke="currentColor" stroke-width="1" opacity="0.5"/>
    <path d="M18 44 L36 44" stroke="currentColor" stroke-width="1" opacity="0.5"/>
    <!-- Quill -->
    <path d="M52 24 L40 52 L42 54 L56 28 Q60 20 52 24" fill="none" stroke="currentColor" stroke-width="1.5"/>
    <path d="M52 24 Q48 28 52 32" fill="none" stroke="currentColor" stroke-width="1"/>
    <!-- Quill tip -->
    <path d="M40 52 L38 58 L42 54" fill="currentColor"/>
  </symbol>
  
  <!-- LINKS: Chain Links -->
  <symbol id="icon-links" viewBox="0 0 64 64">
    <title>Links</title>
    <!-- First chain link -->
    <rect x="8" y="20" width="24" height="12" rx="6" fill="none" stroke="currentColor" stroke-width="2" transform="rotate(-45 20 26)"/>
    <!-- Second chain link -->
    <rect x="32" y="32" width="24" height="12" rx="6" fill="none" stroke="currentColor" stroke-width="2" transform="rotate(-45 44 38)"/>
    <!-- Connection overlap -->
    <circle cx="32" cy="32" r="3" fill="none" stroke="currentColor" stroke-width="1.5"/>
    <!-- Decorative ends -->
    <circle cx="10" cy="18" r="2" fill="currentColor"/>
    <circle cx="54" cy="46" r="2" fill="currentColor"/>
    <!-- Flourishes -->
    <path d="M4 24 Q8 20 12 24" fill="none" stroke="currentColor" stroke-width="1"/>
    <path d="M52 40 Q56 44 60 40" fill="none" stroke="currentColor" stroke-width="1"/>
  </symbol>
  
</svg>
